<?xml version="1.0" encoding="UTF-8"?>
<svg xmlns="http://www.w3.org/2000/svg" xmlns:xlink="http://www.w3.org/1999/xlink" width="142pt" height="40pt" viewBox="0 0 142 40" version="1.1">
<g id="surface1">
<path style=" stroke:none;fill-rule:nonzero;fill:rgb(100%,100%,100%);fill-opacity:1;" d="M 22.039062 0.410156 C 10.457031 0.410156 1.066406 9.179688 1.066406 20 C 1.066406 30.820312 10.457031 39.589844 22.039062 39.589844 C 33.625 39.589844 43.015625 30.820312 43.015625 20 C 43.015625 9.179688 33.625 0.410156 22.039062 0.410156 Z M 31.660156 28.664062 C 31.28125 29.242188 30.476562 29.421875 29.863281 29.070312 C 24.9375 26.257812 18.738281 25.625 11.433594 27.183594 C 10.730469 27.332031 10.03125 26.921875 9.871094 26.265625 C 9.710938 25.605469 10.148438 24.953125 10.855469 24.800781 C 18.84375 23.09375 25.699219 23.828125 31.226562 26.984375 C 31.84375 27.339844 32.039062 28.089844 31.660156 28.664062 Z M 34.226562 23.332031 C 33.753906 24.050781 32.746094 24.273438 31.976562 23.832031 C 26.339844 20.597656 17.746094 19.660156 11.078125 21.550781 C 10.210938 21.792969 9.296875 21.339844 9.035156 20.53125 C 8.773438 19.726562 9.261719 18.875 10.125 18.628906 C 17.742188 16.46875 27.214844 17.515625 33.6875 21.230469 C 34.457031 21.671875 34.699219 22.613281 34.226562 23.332031 Z M 34.449219 17.777344 C 27.6875 14.027344 16.535156 13.679688 10.078125 15.511719 C 9.042969 15.804688 7.945312 15.257812 7.632812 14.289062 C 7.320312 13.320312 7.902344 12.296875 8.941406 12.003906 C 16.347656 9.902344 28.667969 10.308594 36.449219 14.625 C 37.382812 15.140625 37.6875 16.265625 37.136719 17.136719 C 36.585938 18.007812 35.375 18.292969 34.449219 17.777344 Z M 34.449219 17.777344 "/>
<path style=" stroke:none;fill-rule:nonzero;fill:rgb(100%,100%,100%);fill-opacity:1;" d="M 58.132812 18.496094 C 54.511719 17.6875 53.867188 17.121094 53.867188 15.933594 C 53.867188 14.808594 55 14.050781 56.683594 14.050781 C 58.316406 14.050781 59.9375 14.625 61.632812 15.808594 C 61.683594 15.84375 61.75 15.859375 61.8125 15.847656 C 61.875 15.839844 61.933594 15.808594 61.96875 15.757812 L 63.738281 13.429688 C 63.808594 13.335938 63.789062 13.203125 63.691406 13.128906 C 61.671875 11.617188 59.394531 10.878906 56.738281 10.878906 C 52.828125 10.878906 50.09375 13.070312 50.09375 16.207031 C 50.09375 19.570312 52.453125 20.761719 56.523438 21.679688 C 59.988281 22.425781 60.574219 23.050781 60.574219 24.167969 C 60.574219 25.402344 59.390625 26.171875 57.488281 26.171875 C 55.375 26.171875 53.648438 25.507812 51.71875 23.949219 C 51.671875 23.910156 51.605469 23.890625 51.546875 23.894531 C 51.480469 23.898438 51.425781 23.929688 51.382812 23.972656 L 49.402344 26.175781 C 49.316406 26.269531 49.328125 26.40625 49.425781 26.484375 C 51.667969 28.355469 54.429688 29.34375 57.40625 29.34375 C 61.621094 29.34375 64.34375 27.195312 64.34375 23.867188 C 64.351562 21.054688 62.550781 19.5 58.140625 18.496094 Z M 58.132812 18.496094 "/>
<path style=" stroke:none;fill-rule:nonzero;fill:rgb(100%,100%,100%);fill-opacity:1;" d="M 73.875 15.160156 C 72.050781 15.160156 70.550781 15.832031 69.316406 17.207031 L 69.316406 15.65625 C 69.316406 15.535156 69.210938 15.4375 69.078125 15.4375 L 65.835938 15.4375 C 65.707031 15.4375 65.601562 15.535156 65.601562 15.65625 L 65.601562 32.875 C 65.601562 33 65.707031 33.097656 65.835938 33.097656 L 69.078125 33.097656 C 69.210938 33.097656 69.316406 33 69.316406 32.875 L 69.316406 27.441406 C 70.550781 28.738281 72.050781 29.371094 73.875 29.371094 C 77.269531 29.371094 80.707031 26.929688 80.707031 22.265625 C 80.710938 17.597656 77.273438 15.160156 73.878906 15.160156 Z M 76.933594 22.265625 C 76.933594 24.640625 75.367188 26.296875 73.125 26.296875 C 70.90625 26.296875 69.234375 24.566406 69.234375 22.265625 C 69.234375 19.964844 70.90625 18.230469 73.125 18.230469 C 75.332031 18.230469 76.933594 19.925781 76.933594 22.265625 Z M 76.933594 22.265625 "/>
<path style=" stroke:none;fill-rule:nonzero;fill:rgb(100%,100%,100%);fill-opacity:1;" d="M 89.511719 15.160156 C 85.140625 15.160156 81.714844 18.300781 81.714844 22.316406 C 81.714844 26.285156 85.117188 29.394531 89.457031 29.394531 C 93.84375 29.394531 97.277344 26.261719 97.277344 22.265625 C 97.277344 18.28125 93.867188 15.160156 89.511719 15.160156 Z M 89.511719 26.320312 C 87.1875 26.320312 85.433594 24.578125 85.433594 22.261719 C 85.433594 19.941406 87.125 18.253906 89.457031 18.253906 C 91.796875 18.253906 93.5625 20 93.5625 22.3125 C 93.5625 24.636719 91.859375 26.320312 89.511719 26.320312 Z M 89.511719 26.320312 "/>
<path style=" stroke:none;fill-rule:nonzero;fill:rgb(100%,100%,100%);fill-opacity:1;" d="M 106.609375 15.4375 L 103.042969 15.4375 L 103.042969 12.027344 C 103.042969 11.90625 102.9375 11.804688 102.804688 11.804688 L 99.5625 11.804688 C 99.433594 11.804688 99.324219 11.90625 99.324219 12.027344 L 99.324219 15.4375 L 97.765625 15.4375 C 97.636719 15.4375 97.53125 15.535156 97.53125 15.65625 L 97.53125 18.261719 C 97.53125 18.382812 97.636719 18.484375 97.765625 18.484375 L 99.324219 18.484375 L 99.324219 25.21875 C 99.324219 27.941406 100.777344 29.320312 103.636719 29.320312 C 104.800781 29.320312 105.765625 29.097656 106.675781 28.613281 C 106.75 28.574219 106.792969 28.5 106.792969 28.421875 L 106.792969 25.945312 C 106.792969 25.867188 106.75 25.792969 106.679688 25.753906 C 106.609375 25.714844 106.523438 25.710938 106.449219 25.746094 C 105.824219 26.039062 105.222656 26.171875 104.546875 26.171875 C 103.507812 26.171875 103.042969 25.730469 103.042969 24.742188 L 103.042969 18.484375 L 106.609375 18.484375 C 106.742188 18.484375 106.847656 18.382812 106.847656 18.261719 L 106.847656 15.660156 C 106.851562 15.535156 106.746094 15.4375 106.613281 15.4375 Z M 106.609375 15.4375 "/>
<path style=" stroke:none;fill-rule:nonzero;fill:rgb(100%,100%,100%);fill-opacity:1;" d="M 119.042969 15.449219 L 119.042969 15.03125 C 119.042969 13.800781 119.550781 13.25 120.683594 13.25 C 121.359375 13.25 121.902344 13.375 122.511719 13.566406 C 122.585938 13.585938 122.664062 13.574219 122.722656 13.535156 C 122.785156 13.492188 122.824219 13.425781 122.824219 13.355469 L 122.824219 10.800781 C 122.824219 10.703125 122.753906 10.617188 122.65625 10.589844 C 122.011719 10.410156 121.191406 10.226562 119.960938 10.226562 C 116.964844 10.226562 115.378906 11.800781 115.378906 14.78125 L 115.378906 15.421875 L 113.824219 15.421875 C 113.691406 15.421875 113.585938 15.523438 113.585938 15.644531 L 113.585938 18.261719 C 113.585938 18.382812 113.691406 18.484375 113.824219 18.484375 L 115.378906 18.484375 L 115.378906 28.871094 C 115.378906 28.996094 115.488281 29.09375 115.617188 29.09375 L 118.859375 29.09375 C 118.992188 29.09375 119.097656 28.996094 119.097656 28.871094 L 119.097656 18.484375 L 122.125 18.484375 L 126.761719 28.871094 C 126.238281 29.960938 125.71875 30.179688 125.011719 30.179688 C 124.441406 30.179688 123.839844 30.019531 123.222656 29.703125 C 123.167969 29.675781 123.097656 29.671875 123.035156 29.6875 C 122.972656 29.707031 122.921875 29.75 122.894531 29.808594 L 121.796875 32.058594 C 121.742188 32.167969 121.789062 32.292969 121.898438 32.347656 C 123.046875 32.925781 124.082031 33.175781 125.363281 33.175781 C 127.757812 33.175781 129.078125 32.132812 130.246094 29.332031 L 135.871094 15.753906 C 135.902344 15.683594 135.890625 15.605469 135.847656 15.546875 C 135.800781 15.484375 135.730469 15.449219 135.652344 15.449219 L 132.277344 15.449219 C 132.175781 15.449219 132.085938 15.511719 132.050781 15.597656 L 128.59375 24.824219 L 124.804688 15.59375 C 124.769531 15.507812 124.683594 15.449219 124.582031 15.449219 Z M 119.042969 15.449219 "/>
<path style=" stroke:none;fill-rule:nonzero;fill:rgb(100%,100%,100%);fill-opacity:1;" d="M 111.835938 15.4375 L 108.59375 15.4375 C 108.460938 15.4375 108.355469 15.535156 108.355469 15.65625 L 108.355469 28.871094 C 108.355469 28.996094 108.460938 29.09375 108.59375 29.09375 L 111.835938 29.09375 C 111.964844 29.09375 112.074219 28.996094 112.074219 28.871094 L 112.074219 15.660156 C 112.074219 15.535156 111.96875 15.4375 111.835938 15.4375 Z M 111.835938 15.4375 "/>
<path style=" stroke:none;fill-rule:nonzero;fill:rgb(100%,100%,100%);fill-opacity:1;" d="M 110.234375 9.417969 C 108.949219 9.417969 107.90625 10.390625 107.90625 11.589844 C 107.90625 12.789062 108.949219 13.761719 110.234375 13.761719 C 111.515625 13.761719 112.558594 12.789062 112.558594 11.589844 C 112.558594 10.390625 111.515625 9.417969 110.234375 9.417969 Z M 110.234375 9.417969 "/>
<path style=" stroke:none;fill-rule:nonzero;fill:rgb(100%,100%,100%);fill-opacity:1;" d="M 138.640625 19.683594 C 137.359375 19.683594 136.359375 18.722656 136.359375 17.550781 C 136.359375 16.382812 137.371094 15.410156 138.652344 15.410156 C 139.9375 15.410156 140.933594 16.371094 140.933594 17.539062 C 140.933594 18.710938 139.921875 19.683594 138.640625 19.683594 Z M 138.652344 15.621094 C 137.484375 15.621094 136.601562 16.488281 136.601562 17.550781 C 136.601562 18.613281 137.476562 19.472656 138.640625 19.472656 C 139.8125 19.472656 140.695312 18.605469 140.695312 17.539062 C 140.695312 16.476562 139.816406 15.621094 138.65625 15.621094 Z M 139.160156 17.757812 L 139.804688 18.605469 L 139.261719 18.605469 L 138.679688 17.828125 L 138.179688 17.828125 L 138.179688 18.605469 L 137.722656 18.605469 L 137.722656 16.367188 L 138.792969 16.367188 C 139.347656 16.367188 139.714844 16.632812 139.714844 17.082031 C 139.71875 17.445312 139.488281 17.671875 139.160156 17.757812 Z M 138.773438 16.75 L 138.179688 16.75 L 138.179688 17.457031 L 138.773438 17.457031 C 139.070312 17.457031 139.246094 17.324219 139.246094 17.105469 C 139.246094 16.875 139.070312 16.75 138.773438 16.75 Z M 138.773438 16.75 "/>
</g>
</svg>
